<svg width="310" height="211" viewBox="0 0 310 211" fill="none" xmlns="http://www.w3.org/2000/svg">
<path d="M276.548 115.404C275.732 115.404 274.916 114.595 274.916 113.787V70.7381C274.916 69.9296 275.732 69.1212 276.548 69.1212C277.364 69.1212 278.18 69.9296 278.18 70.7381V113.787C278.18 114.595 277.364 115.404 276.548 115.404Z" fill="#231D14" fill-opacity="0.03"/>
<path d="M33.4082 115.404C34.2241 115.404 35.04 114.595 35.04 113.787V70.7381C35.04 69.9296 34.2241 69.1212 33.4082 69.1212C32.5923 69.1212 31.7764 69.9296 31.7764 70.7381V113.787C31.7764 114.595 32.5923 115.404 33.4082 115.404Z" fill="#231D14" fill-opacity="0.03"/>
<path d="M309.796 75.7904C309.592 76.3967 308.98 76.5988 308.368 76.5988C308.164 76.5988 307.96 76.5988 307.756 76.3967L154.978 3.63794L2.1998 76.5988C1.99583 76.8009 1.79185 76.8009 1.58788 76.8009C0.975947 76.8009 0.364018 76.3967 0.160042 75.9925C-0.247911 75.184 0.160042 74.1735 0.975947 73.9714L154.978 0L309.184 73.7693C310 74.1735 310.204 74.9819 309.796 75.7904Z" fill="#231D14" fill-opacity="0.03"/>
<path d="M273.284 65.8875C273.08 66.4938 272.468 66.6959 271.856 66.6959C271.653 66.6959 271.449 66.6959 271.245 66.4938L154.978 11.1163L38.9156 66.4938C38.7116 66.6959 38.5076 66.6959 38.0997 66.6959C37.4878 66.6959 36.8758 66.2917 36.6718 65.8875C36.2639 65.0791 36.6718 64.0685 37.4877 63.6643L154.978 7.47838L272.468 63.6643C273.284 64.0685 273.692 65.0791 273.284 65.8875Z" fill="#231D14" fill-opacity="0.03"/>
<path d="M236.773 55.9836C236.569 56.59 235.957 56.7921 235.345 56.7921C235.141 56.7921 234.937 56.7921 234.733 56.59L154.978 18.5937L75.4273 56.59C75.2234 56.7921 75.0194 56.7921 74.8154 56.7921C74.2035 56.7921 73.5915 56.3878 73.3876 55.9836C72.9796 55.1752 73.3876 54.1647 74.2035 53.7604L154.978 14.9558L235.957 53.7604C236.773 54.1647 237.181 55.1752 236.773 55.9836Z" fill="#231D14" fill-opacity="0.03"/>
<path d="M233.917 139.252C233.509 139.252 232.897 139.454 232.081 139.858C231.061 140.262 230.041 140.869 228.613 141.879C227.186 142.688 225.758 143.698 224.33 144.911C222.698 146.123 221.066 147.538 219.638 148.953C215.967 152.591 212.499 156.633 209.644 160.877C206.788 165.324 203.932 169.568 201.281 174.216C198.629 178.663 195.773 183.109 192.918 187.151C190.062 191.396 186.594 195.033 182.719 198.267C178.843 201.501 174.356 204.128 169.256 206.149C164.157 208.17 158.038 209.181 151.102 209.181C146.819 209.181 142.943 208.777 139.476 207.766C136.008 206.756 132.949 205.341 130.297 203.724C127.645 201.905 125.809 199.884 124.382 197.459C122.954 195.033 122.342 192.406 122.342 189.374C122.342 185.939 123.158 182.705 124.993 179.875C126.829 177.046 129.073 174.419 131.929 172.397C134.784 170.174 138.048 168.557 141.516 167.345C144.983 166.132 148.451 165.526 151.918 165.526C158.038 165.526 162.729 166.738 165.789 169.164C168.848 171.589 170.48 174.823 170.48 178.865C170.48 181.694 169.868 184.322 168.44 186.545C167.217 188.768 165.381 190.587 163.341 192.002C161.301 193.417 158.853 194.629 156.202 195.438C153.55 196.246 151.102 196.65 148.451 196.65C146.207 196.65 144.371 196.448 142.739 196.044C141.108 195.64 139.68 195.236 138.66 194.831C137.436 194.427 136.62 194.023 136.008 193.619C135.396 193.215 134.784 193.012 134.58 193.012C134.376 193.012 134.172 193.215 134.172 193.619C134.172 193.821 134.58 194.225 135.192 194.629C136.008 195.034 137.028 195.64 138.252 196.044C139.476 196.448 141.108 197.055 142.739 197.257C144.371 197.661 146.207 197.863 148.043 197.863C150.898 197.863 153.754 197.459 156.61 196.65C159.465 195.842 162.117 194.629 164.361 193.012C166.605 191.396 168.644 189.374 170.072 186.949C171.5 184.524 172.112 181.897 172.112 178.865C172.112 175.833 171.5 173.408 170.072 171.185C168.644 168.962 167.013 167.345 164.769 165.93C162.729 164.515 160.281 163.505 157.63 162.898C154.978 162.292 152.53 161.888 150.083 161.888C146.207 161.888 142.331 162.494 138.864 163.909C135.192 165.324 132.133 167.143 129.277 169.366C126.421 171.791 124.178 174.419 122.546 177.652C120.914 180.684 120.098 184.12 120.098 187.556C120.098 191.193 120.914 194.629 122.546 197.459C124.178 200.288 126.421 202.714 129.073 204.735C131.929 206.756 135.192 208.17 138.864 209.383C142.535 210.394 146.615 211 150.898 211C157.222 211 163.341 210.192 169.052 208.575C174.764 206.958 179.863 204.533 184.758 201.501C189.654 198.469 193.937 194.629 197.813 190.183C201.689 185.737 205.156 180.684 208.012 175.227C211.683 168.153 214.947 162.292 217.803 157.644C220.658 152.995 222.902 149.559 224.942 147.134C225.962 145.921 226.982 144.911 228.001 144.304C229.021 143.496 230.041 142.89 231.061 142.486C232.081 142.081 232.897 141.677 233.509 141.273C234.121 140.869 234.529 140.667 234.529 140.262C234.325 139.454 234.325 139.252 233.917 139.252ZM182.311 138.039C182.107 138.039 181.699 138.443 181.291 139.05C181.903 138.848 182.515 138.443 183.127 138.241C182.923 138.039 182.719 138.039 182.311 138.039Z" fill="#231D14" fill-opacity="0.03"/>
<path d="M182.311 138.039C182.107 138.039 181.699 138.443 181.291 139.05C181.903 138.848 182.515 138.443 183.127 138.241C182.923 138.039 182.719 138.039 182.311 138.039Z" fill="#231D14" fill-opacity="0.03"/>
<path d="M258.598 129.955C257.782 129.955 256.966 129.955 255.946 130.157C254.926 130.359 253.906 130.561 252.275 130.763C250.847 130.965 249.011 131.167 246.971 131.37C244.931 131.572 242.28 131.572 239.016 131.572H212.499C203.728 131.572 196.385 132.38 190.47 133.997C184.555 135.614 179.659 137.433 176.191 139.858C172.52 142.283 170.072 144.709 168.44 147.538C167.42 149.559 166.605 151.378 166.401 152.995C164.769 154.006 163.341 154.41 162.117 154.41C161.301 154.41 160.689 154.208 160.281 153.601C159.873 152.995 159.669 152.389 159.669 151.378C159.669 149.761 160.281 147.336 161.709 144.507C163.137 141.677 164.973 138.443 167.217 134.805C169.46 131.167 171.908 127.327 174.764 123.285C177.415 119.243 180.271 115.201 182.719 111.159L206.176 74.5773L199.853 75.3858C199.241 75.3858 198.833 75.5879 198.425 75.79C198.017 75.9921 197.405 76.5984 196.589 77.4068C195.773 78.4174 194.753 79.8321 193.529 81.6511C192.306 83.4701 190.47 86.0975 188.43 89.5333C186.39 92.9691 183.535 97.2134 180.271 102.266C177.007 107.319 172.928 113.584 168.236 120.86C164.769 126.115 161.097 130.965 157.426 135.21C153.55 139.454 150.083 142.89 146.615 145.921C143.147 148.953 139.884 151.176 137.232 152.793C134.376 154.41 132.133 155.218 130.705 155.218C129.277 155.218 128.461 155.016 128.053 154.41C127.645 153.804 127.441 153.197 127.441 152.187C127.441 150.57 128.053 148.145 129.481 145.315C130.909 142.486 132.745 139.252 134.988 135.614C137.232 131.976 139.68 128.136 142.535 124.094C145.187 120.052 148.043 116.009 150.49 111.967L173.948 75.3858L168.032 75.79C167.42 75.79 167.013 75.9921 166.605 76.1942C166.197 76.3963 165.585 77.0026 164.769 77.8111C163.953 78.8216 162.933 80.2363 161.709 82.0553C160.485 83.8743 158.853 86.5017 156.61 89.9375C154.366 93.3733 151.714 97.6176 148.451 102.67C145.187 107.723 141.108 113.988 136.416 121.264C132.949 126.519 129.277 131.37 125.605 135.614C121.73 139.858 118.262 143.294 114.795 146.326C111.327 149.357 108.063 151.58 105.412 153.197C102.556 154.814 100.312 155.623 98.8845 155.623C97.6606 155.623 96.8447 155.42 96.2328 155.016C95.8248 154.612 95.6209 153.804 95.6209 152.389C95.6209 150.368 96.4368 147.74 98.0686 144.709C99.7004 141.677 101.74 138.443 104.188 135.008C106.636 131.572 109.287 127.732 111.939 123.892C114.795 120.052 117.446 116.009 119.69 112.169C122.138 108.329 124.178 104.489 125.605 100.649C127.237 96.8092 128.053 93.1712 128.053 89.9375C128.053 84.6827 126.625 80.8427 123.974 78.4174C121.322 75.9921 117.242 74.5773 112.143 74.5773C110.103 74.5773 108.063 74.7794 106.024 75.1837C104.596 74.3752 102.964 73.5668 101.128 73.1626C99.2924 72.5563 97.0487 72.3542 94.601 72.3542C90.7254 72.3542 87.0539 73.1626 83.5863 74.5773C80.1187 76.1942 76.855 78.2153 73.7954 80.6406C70.7358 83.268 68.0841 86.0975 65.6363 89.3312C63.1886 92.5649 61.1489 96.0008 59.721 99.4366C59.1091 100.851 58.4972 102.266 58.0892 103.681C57.6813 105.096 57.2733 106.51 56.8654 107.925C56.4574 109.34 56.2534 110.553 56.0495 111.563C55.8455 112.776 55.8455 113.584 55.8455 113.988C55.8455 114.393 55.8455 114.797 55.8455 115.201C55.8455 115.605 56.0495 115.605 56.4574 115.605C56.8654 115.605 57.0693 114.999 57.0693 113.988C57.6813 108.531 59.1091 103.277 61.3528 98.2239C63.8006 93.3733 66.6562 88.927 69.9198 85.289C73.3874 81.6511 77.263 78.6195 81.3425 76.5984C85.626 74.3752 89.9095 73.3647 94.193 73.3647C98.0686 73.3647 101.332 73.971 103.576 75.3858C99.7004 76.3963 95.8248 78.0132 91.9493 80.2364C88.0737 82.4595 84.6061 84.8848 81.5465 87.9164C78.4868 90.9481 76.0391 93.9797 74.2033 97.4155C72.3676 100.851 71.3477 104.287 71.3477 107.723C71.3477 110.957 72.1636 113.786 73.9994 115.807C75.6312 118.03 78.4868 119.041 82.1584 119.041C86.034 119.041 89.9095 118.03 93.3771 116.212C97.0487 114.19 100.108 111.765 102.76 108.734C105.412 105.702 107.655 102.266 109.287 98.6281C110.919 94.9902 111.735 91.3523 111.735 87.7143C111.735 85.4912 111.327 83.268 110.715 81.2469C110.103 79.2258 108.879 77.4068 107.044 76.1942C108.063 75.9921 108.879 75.9921 109.899 75.79C110.715 75.79 111.735 75.5879 112.551 75.5879C113.979 75.5879 115.407 75.79 116.834 76.1942C118.262 76.5984 119.486 77.2047 120.506 78.0132C121.526 78.8216 122.546 79.8321 123.158 81.0448C123.77 82.2574 124.178 83.6722 124.178 85.4911C124.178 88.1185 123.362 90.9481 121.73 94.1818C120.098 97.4155 118.058 100.851 115.611 104.489C113.163 108.127 110.511 111.967 107.859 115.807C105.004 119.647 102.352 123.689 100.108 127.53C97.6606 131.37 95.6209 135.21 94.193 138.848C92.5612 142.485 91.7453 146.123 91.7453 149.357C91.7453 151.58 92.3572 153.399 93.5811 154.814C94.805 156.027 96.2328 156.835 98.0686 156.835C99.7004 156.835 101.332 156.431 103.168 155.623C105.004 154.814 107.044 153.601 109.083 152.187C111.123 150.772 113.163 149.155 115.203 147.336C117.242 145.517 119.282 143.698 121.118 141.879C122.954 140.06 124.585 138.241 126.013 136.624C127.441 134.805 128.665 133.391 129.481 132.178L129.685 132.38C128.461 135.21 127.033 138.039 125.809 140.869C124.585 143.698 123.974 146.73 123.974 150.166C123.974 154.612 125.809 156.835 129.685 156.835C131.317 156.835 132.949 156.431 134.784 155.623C136.62 154.814 138.66 153.601 140.7 152.187C142.739 150.772 144.779 149.155 146.819 147.336C148.859 145.517 150.898 143.698 152.734 141.879C154.57 140.06 156.202 138.241 157.63 136.624C159.057 134.805 160.281 133.391 161.097 132.178L161.301 132.38C160.077 135.21 158.65 138.039 157.426 140.869C156.202 143.698 155.59 146.73 155.59 150.166C155.59 154.612 157.426 156.835 161.301 156.835C162.321 156.835 163.341 156.431 164.769 155.825C164.973 155.825 165.177 155.623 165.381 155.623C165.381 155.825 165.381 156.027 165.381 156.431C165.381 160.069 166.809 162.898 169.664 165.324C172.52 167.749 176.599 168.962 181.699 168.962C184.758 168.962 187.614 168.355 190.266 167.345C192.918 166.132 195.365 164.717 197.609 163.1C199.853 161.484 201.689 159.463 203.524 157.644C205.156 155.623 206.788 153.804 207.808 151.985C209.032 150.166 209.848 148.549 210.663 147.336C211.275 146.123 211.683 145.315 211.683 145.113C211.683 144.709 211.479 144.507 211.071 144.507C211.071 144.507 210.663 145.113 210.052 146.123C209.44 147.134 208.42 148.549 207.196 149.963C205.972 151.58 204.34 153.197 202.504 155.016C200.669 156.835 198.629 158.452 196.181 160.069C193.733 161.686 191.082 162.898 188.226 164.111C185.37 165.122 182.107 165.728 178.639 165.728C175.376 165.728 172.724 164.919 170.684 163.1C168.644 161.484 167.624 159.058 167.624 156.229C167.624 155.825 167.624 155.218 167.624 154.814C168.236 154.41 168.644 154.208 169.256 153.804C170.684 152.793 171.908 151.782 173.336 150.57C174.764 149.357 175.784 148.347 176.599 147.336C177.211 146.528 178.027 145.719 178.843 144.709C179.659 143.9 180.271 143.092 181.087 142.283C181.699 141.475 182.311 140.869 182.719 140.464C183.127 140.06 183.331 139.656 183.331 139.656C183.331 139.454 183.331 139.454 183.127 139.252C182.515 139.454 181.903 139.656 181.291 140.06C180.883 140.464 180.475 141.071 180.067 141.677C178.843 143.496 176.599 145.719 173.744 148.347C171.908 150.166 170.072 151.782 168.44 152.995C168.848 151.58 169.46 150.166 170.48 148.751C172.112 146.326 174.356 144.102 177.415 142.283C178.639 141.475 180.067 140.667 181.495 140.06C182.107 139.454 182.515 139.05 182.515 139.05C182.923 139.05 183.127 139.05 183.127 139.252C184.555 138.645 186.186 138.039 188.022 137.635C192.102 136.422 196.793 135.816 201.892 135.816C205.972 135.816 209.44 135.816 212.295 136.018C215.151 136.22 217.803 136.422 220.046 136.624C222.29 136.827 224.126 137.029 225.758 137.231C227.39 137.433 229.021 137.635 230.653 137.837C232.285 138.039 233.917 138.241 235.549 138.443C237.18 138.645 239.22 138.645 241.464 138.645C244.524 138.645 247.175 138.241 249.419 137.635C251.663 137.029 253.498 136.22 254.926 135.412C256.354 134.603 257.374 133.795 258.19 132.986C259.006 132.178 259.21 131.774 259.21 131.572C259.006 130.157 259.006 129.955 258.598 129.955ZM108.471 79.8321C109.083 81.449 109.491 83.0659 109.491 84.8848C109.491 87.108 109.083 89.5333 108.267 91.9586C107.451 94.3839 106.228 96.8092 104.8 99.2345C103.372 101.66 101.74 103.883 99.7004 105.904C97.8646 107.925 95.8248 109.744 93.7851 111.361C91.7453 112.978 89.5016 114.19 87.4618 115.201C85.2181 116.212 83.1783 116.616 81.3425 116.616C78.6908 116.616 76.4471 115.605 75.2232 113.584C73.7954 111.563 73.1835 109.34 73.1835 106.51C73.1835 103.479 73.9994 100.245 75.8352 97.0113C77.6709 93.7776 80.1187 90.7459 82.9743 87.9164C86.034 85.0869 89.5016 82.6616 93.1731 80.4385C97.0487 78.2153 100.924 76.8005 105.208 75.9921C106.636 77.0026 107.859 78.2153 108.471 79.8321Z" fill="#231D14" fill-opacity="0.03"/>
</svg>
