<svg width="14" height="14" viewBox="0 0 14 14" fill="none" xmlns="http://www.w3.org/2000/svg">
<path fill-rule="evenodd" clip-rule="evenodd" d="M1.66354 1.6683C0.971476 2.36462 0.583105 3.30634 0.583313 4.28786V9.71211C0.583105 10.6936 0.971476 11.6354 1.66354 12.3317C2.00555 12.6792 2.41387 12.9544 2.86456 13.1408C3.31526 13.3272 3.79889 13.4209 4.28661 13.4164H9.71334C10.2001 13.4173 10.6822 13.3222 11.1321 13.1363C11.582 12.9504 11.9908 12.6775 12.3349 12.3333C12.679 11.9891 12.9517 11.5804 13.1373 11.1305C13.323 10.6807 13.4179 10.1987 13.4166 9.71211V4.28786C13.4179 3.80126 13.323 3.31914 13.1373 2.86931C12.9517 2.41949 12.679 2.01087 12.3349 1.66667C11.9908 1.32248 11.582 1.04958 11.1321 0.863697C10.6822 0.677814 10.2001 0.582521 9.71334 0.583403H4.28661C3.79889 0.578954 3.31526 0.672796 2.86456 0.859179C2.41387 1.04556 2.00555 1.32072 1.66354 1.6683ZM9.84193 1.84818C10.1435 1.84861 10.4419 1.9088 10.72 2.02529C10.9981 2.14179 11.2504 2.3123 11.4621 2.52689C11.9003 2.96111 12.1498 3.55029 12.1566 4.16698V9.83287C12.1498 10.4496 11.9003 11.0387 11.4621 11.473C11.2504 11.6875 10.9981 11.8581 10.72 11.9746C10.4419 12.091 10.1435 12.1512 9.84193 12.1517H4.15802C3.54133 12.151 2.94997 11.9071 2.51219 11.473C2.09161 11.0293 1.85282 10.444 1.84336 9.83287V4.16698C1.85282 3.55584 2.09161 2.97055 2.51219 2.52689C2.94997 2.09274 3.54133 1.84881 4.15802 1.84818H9.84193ZM9.81606 3.06927C9.7427 3.14223 9.6845 3.22895 9.64477 3.32446C9.60505 3.41998 9.58475 3.52241 9.58475 3.62585C9.58475 3.72928 9.60505 3.83171 9.64477 3.92723C9.6845 4.02274 9.7427 4.10946 9.81606 4.18242C9.88972 4.25702 9.97815 4.31558 10.0755 4.35451C10.1729 4.39344 10.2771 4.41186 10.3819 4.40861C10.5361 4.40618 10.6863 4.35842 10.8134 4.27116C10.9405 4.18391 11.0391 4.06115 11.0967 3.91819C11.1544 3.77523 11.1684 3.61842 11.1374 3.46743C11.1063 3.31645 11.0316 3.17791 10.9222 3.06927C10.8543 2.9887 10.7695 2.92392 10.674 2.87948C10.5785 2.83504 10.4745 2.81208 10.3691 2.81208C10.2638 2.81208 10.1597 2.83504 10.0642 2.87948C9.96869 2.92392 9.8839 2.9887 9.81606 3.06927ZM4.72387 4.72481C4.20224 5.25111 3.87943 5.94198 3.81017 6.67959C3.74091 7.4172 3.92958 8.15592 4.34412 8.77006C4.75867 9.38419 5.37343 9.83572 6.08363 10.0476C6.79384 10.2596 7.55554 10.2188 8.23905 9.93228C8.92257 9.64579 9.48554 9.13132 9.83214 8.47646C10.1787 7.8216 10.2874 7.06693 10.1398 6.34092C9.99216 5.61492 9.59727 4.96248 9.02241 4.49485C8.44755 4.02721 7.72821 3.77324 6.98704 3.77622C6.13664 3.77996 5.3226 4.12116 4.72387 4.72481ZM8.35031 5.64514C8.62159 5.91103 8.80682 6.25222 8.88201 6.62448C8.95721 6.99674 8.91882 7.38296 8.77201 7.73323C8.62519 8.0835 8.37668 8.38167 8.05847 8.58918C7.74027 8.79668 7.36691 8.90402 6.98704 8.89721C6.73871 8.90422 6.49165 8.85953 6.26145 8.76617C6.03125 8.6728 5.82312 8.53269 5.64988 8.3547C5.30311 7.98879 5.10965 7.50394 5.10965 6.99992C5.10965 6.4959 5.30311 6.01105 5.64988 5.64514C6.0021 5.28452 6.48288 5.07835 6.98704 5.07188C7.49875 5.07822 7.98799 5.2839 8.35031 5.64514Z" fill="#231D14"/>
</svg>
