<svg width="14" height="14" viewBox="0 0 14 14" fill="none" xmlns="http://www.w3.org/2000/svg">
<path fill-rule="evenodd" clip-rule="evenodd" d="M1.66347 1.6683C0.971415 2.36462 0.583044 3.30634 0.583252 4.28786V9.71211C0.583044 10.6936 0.971415 11.6354 1.66347 12.3317C2.00549 12.6792 2.41381 12.9544 2.8645 13.1408C3.31519 13.3272 3.79883 13.4209 4.28655 13.4164H9.71328C10.2001 13.4173 10.6822 13.3222 11.1321 13.1363C11.5819 12.9504 11.9907 12.6775 12.3348 12.3333C12.679 11.9891 12.9516 11.5804 13.1373 11.1305C13.3229 10.6807 13.4178 10.1987 13.4166 9.71211V4.28786C13.4178 3.80126 13.3229 3.31914 13.1373 2.86931C12.9516 2.41949 12.679 2.01087 12.3348 1.66667C11.9907 1.32248 11.5819 1.04958 11.1321 0.863697C10.6822 0.677814 10.2001 0.582521 9.71328 0.583403H4.28655C3.79883 0.578954 3.31519 0.672796 2.8645 0.859179C2.41381 1.04556 2.00549 1.32072 1.66347 1.6683ZM9.84187 1.84818C10.1434 1.84861 10.4418 1.9088 10.7199 2.02529C10.998 2.14179 11.2503 2.3123 11.4621 2.52689C11.9002 2.96111 12.1497 3.55029 12.1565 4.16698V9.83287C12.1497 10.4496 11.9002 11.0387 11.4621 11.473C11.2503 11.6875 10.998 11.8581 10.7199 11.9746C10.4418 12.091 10.1434 12.1512 9.84187 12.1517H4.15796C3.54127 12.151 2.94991 11.9071 2.51213 11.473C2.09154 11.0293 1.85276 10.444 1.8433 9.83287V4.16698C1.85276 3.55584 2.09154 2.97055 2.51213 2.52689C2.94991 2.09274 3.54127 1.84881 4.15796 1.84818H9.84187ZM9.816 3.06927C9.74264 3.14223 9.68443 3.22895 9.64471 3.32446C9.60499 3.41998 9.58469 3.52241 9.58469 3.62585C9.58469 3.72928 9.60499 3.83171 9.64471 3.92723C9.68443 4.02274 9.74264 4.10946 9.816 4.18242C9.88966 4.25702 9.97809 4.31558 10.0754 4.35451C10.1728 4.39344 10.277 4.41186 10.3819 4.40861C10.536 4.40618 10.6862 4.35842 10.8133 4.27116C10.9405 4.18391 11.039 4.06115 11.0966 3.91819C11.1543 3.77523 11.1684 3.61842 11.1373 3.46743C11.1063 3.31645 11.0315 3.17791 10.9221 3.06927C10.8543 2.9887 10.7695 2.92392 10.6739 2.87948C10.5784 2.83504 10.4744 2.81208 10.369 2.81208C10.2637 2.81208 10.1597 2.83504 10.0641 2.87948C9.96863 2.92392 9.88384 2.9887 9.816 3.06927ZM4.72381 4.72481C4.20218 5.25111 3.87937 5.94198 3.81011 6.67959C3.74084 7.4172 3.92951 8.15592 4.34406 8.77006C4.75861 9.38419 5.37337 9.83572 6.08357 10.0476C6.79377 10.2596 7.55548 10.2188 8.23899 9.93228C8.92251 9.64579 9.48548 9.13132 9.83207 8.47646C10.1787 7.8216 10.2874 7.06693 10.1397 6.34092C9.9921 5.61492 9.59721 4.96248 9.02235 4.49485C8.44749 4.02721 7.72815 3.77324 6.98698 3.77622C6.13658 3.77996 5.32254 4.12116 4.72381 4.72481ZM8.35025 5.64514C8.62153 5.91103 8.80676 6.25222 8.88195 6.62448C8.95715 6.99674 8.91876 7.38296 8.77194 7.73323C8.62513 8.0835 8.37661 8.38167 8.05841 8.58918C7.74021 8.79668 7.36685 8.90402 6.98698 8.89721C6.73865 8.90422 6.49159 8.85953 6.26139 8.76617C6.03119 8.6728 5.82306 8.53269 5.64982 8.3547C5.30305 7.98879 5.10959 7.50394 5.10959 6.99992C5.10959 6.4959 5.30305 6.01105 5.64982 5.64514C6.00204 5.28452 6.48282 5.07835 6.98698 5.07188C7.49869 5.07822 7.98793 5.2839 8.35025 5.64514Z" fill="white"/>
</svg>
