<svg width="85" height="57" viewBox="0 0 85 57" fill="none" xmlns="http://www.w3.org/2000/svg">
<path d="M75.8276 31.1755C75.6039 31.1755 75.3802 30.9571 75.3802 30.7387V19.1093C75.3802 18.8909 75.6039 18.6726 75.8276 18.6726C76.0514 18.6726 76.2751 18.8909 76.2751 19.1093V30.7387C76.2751 30.9571 76.0514 31.1755 75.8276 31.1755Z" fill="#231D14"/>
<path d="M9.16032 31.1755C9.38404 31.1755 9.60776 30.9571 9.60776 30.7387V19.1093C9.60776 18.8909 9.38404 18.6726 9.16032 18.6726C8.93661 18.6726 8.71289 18.8909 8.71289 19.1093V30.7387C8.71289 30.9571 8.93661 31.1755 9.16032 31.1755Z" fill="#231D14"/>
<path d="M84.9441 20.4742C84.8881 20.638 84.7204 20.6926 84.5526 20.6926C84.4966 20.6926 84.4407 20.6926 84.3848 20.638L42.494 0.98276L0.603172 20.6926C0.547243 20.7472 0.491314 20.7472 0.435385 20.7472C0.267598 20.7472 0.0998114 20.638 0.0438824 20.5288C-0.0679755 20.3104 0.0438824 20.0374 0.267598 19.9828L42.494 0L84.7763 19.9282C85 20.0374 85.0559 20.2558 84.9441 20.4742Z" fill="#231D14"/>
<path d="M74.9328 17.799C74.8769 17.9628 74.7091 18.0174 74.5413 18.0174C74.4854 18.0174 74.4294 18.0174 74.3735 17.9628L42.494 3.00299L10.6704 17.9628C10.6145 18.0174 10.5585 18.0174 10.4467 18.0174C10.2789 18.0174 10.1111 17.9082 10.0552 17.799C9.94333 17.5806 10.0552 17.3076 10.2789 17.1984L42.494 2.02023L74.7091 17.1984C74.9328 17.3076 75.0447 17.5806 74.9328 17.799Z" fill="#231D14"/>
<path d="M64.9215 15.1235C64.8656 15.2873 64.6978 15.3419 64.53 15.3419C64.4741 15.3419 64.4182 15.3419 64.3622 15.2873L42.494 5.02294L20.6817 15.2873C20.6258 15.3419 20.5698 15.3419 20.5139 15.3419C20.3461 15.3419 20.1783 15.2327 20.1224 15.1235C20.0105 14.9051 20.1224 14.6322 20.3461 14.523L42.494 4.04018L64.6978 14.523C64.9215 14.6322 65.0334 14.9051 64.9215 15.1235Z" fill="#231D14"/>
<path d="M64.1385 37.6178C64.0266 37.6178 63.8588 37.6724 63.6351 37.7816C63.3555 37.8908 63.0758 38.0546 62.6843 38.3276C62.2928 38.5459 61.9013 38.8189 61.5098 39.1465C61.0624 39.4741 60.6149 39.8563 60.2234 40.2385C59.2167 41.2212 58.2659 42.3132 57.4829 43.4597C56.6999 44.6609 55.9169 45.8075 55.1898 47.0632C54.4628 48.2644 53.6797 49.4655 52.8967 50.5575C52.1137 51.704 51.1629 52.6868 50.1003 53.5603C49.0376 54.4339 47.8072 55.1437 46.409 55.6897C45.0108 56.2356 43.3329 56.5086 41.4313 56.5086C40.2568 56.5086 39.1941 56.3994 38.2434 56.1264C37.2926 55.8534 36.4536 55.4713 35.7265 55.0345C34.9995 54.5431 34.4961 53.9971 34.1046 53.3419C33.7131 52.6868 33.5453 51.977 33.5453 51.158C33.5453 50.2299 33.769 49.3563 34.2724 48.5919C34.7758 47.8276 35.391 47.1178 36.174 46.5718C36.957 45.9712 37.8518 45.5345 38.8026 45.2069C39.7534 44.8793 40.7042 44.7155 41.655 44.7155C43.3329 44.7155 44.6193 45.0431 45.4582 45.6983C46.2971 46.3534 46.7446 47.227 46.7446 48.319C46.7446 49.0833 46.5768 49.7931 46.1853 50.3937C45.8497 50.9942 45.3463 51.4856 44.787 51.8678C44.2278 52.25 43.5566 52.5776 42.8295 52.796C42.1025 53.0144 41.4313 53.1236 40.7042 53.1236C40.089 53.1236 39.5856 53.069 39.1382 52.9598C38.6908 52.8506 38.2993 52.7414 38.0196 52.6322C37.6841 52.523 37.4603 52.4138 37.2926 52.3046C37.1248 52.1954 36.957 52.1408 36.9011 52.1408C36.8451 52.1408 36.7892 52.1954 36.7892 52.3046C36.7892 52.3592 36.9011 52.4684 37.0688 52.5776C37.2926 52.6868 37.5722 52.8506 37.9078 52.9598C38.2434 53.069 38.6908 53.2328 39.1382 53.2874C39.5856 53.3965 40.089 53.4511 40.5924 53.4511C41.3754 53.4511 42.1584 53.342 42.9414 53.1236C43.7244 52.9052 44.4515 52.5776 45.0667 52.1408C45.6819 51.704 46.2412 51.158 46.6327 50.5029C47.0242 49.8477 47.192 49.1379 47.192 48.319C47.192 47.5 47.0242 46.8448 46.6327 46.2442C46.2412 45.6437 45.7938 45.2069 45.1785 44.8247C44.6193 44.4425 43.9481 44.1695 43.221 44.0057C42.494 43.8419 41.8228 43.7327 41.1517 43.7327C40.089 43.7327 39.0264 43.8965 38.0756 44.2787C37.0688 44.6609 36.2299 45.1523 35.4469 45.7529C34.6639 46.408 34.0487 47.1178 33.6012 47.9914C33.1538 48.8103 32.9301 49.7385 32.9301 50.6667C32.9301 51.6494 33.1538 52.5776 33.6012 53.3419C34.0487 54.1063 34.6639 54.7615 35.391 55.3075C36.174 55.8534 37.0688 56.2356 38.0756 56.5632C39.0823 56.8362 40.2009 57 41.3754 57C43.1092 57 44.787 56.7816 46.3531 56.3448C47.9191 55.908 49.3173 55.2529 50.6596 54.4339C52.0019 53.6149 53.1764 52.5776 54.239 51.3764C55.3017 50.1753 56.2525 48.8103 57.0355 47.3362C58.0422 45.4253 58.9371 43.8419 59.7201 42.5862C60.5031 41.3304 61.1183 40.4023 61.6776 39.7471C61.9572 39.4195 62.2369 39.1465 62.5165 38.9827C62.7962 38.7643 63.0758 38.6005 63.3555 38.4913C63.6351 38.3821 63.8588 38.273 64.0266 38.1638C64.1944 38.0546 64.3063 38 64.3063 37.8908C64.2503 37.6724 64.2503 37.6178 64.1385 37.6178ZM49.9884 37.2902C49.9325 37.2902 49.8207 37.3994 49.7088 37.5632C49.8766 37.5086 50.0444 37.3994 50.2122 37.3448C50.1562 37.2902 50.1003 37.2902 49.9884 37.2902Z" fill="#231D14"/>
<path d="M49.9884 37.2902C49.9325 37.2902 49.8207 37.3994 49.7088 37.5632C49.8766 37.5086 50.0444 37.3994 50.2122 37.3448C50.1562 37.2902 50.1003 37.2902 49.9884 37.2902Z" fill="#231D14"/>
<path d="M70.9059 35.1063C70.6822 35.1063 70.4584 35.1063 70.1788 35.1609C69.8992 35.2155 69.6195 35.2701 69.1721 35.3247C68.7806 35.3793 68.2772 35.4339 67.7179 35.4885C67.1586 35.5431 66.4316 35.5431 65.5367 35.5431H58.2659C55.861 35.5431 53.8475 35.7615 52.2256 36.1982C50.6037 36.635 49.2614 37.1264 48.3106 37.7816C47.3038 38.4367 46.6327 39.0919 46.1853 39.8563C45.9056 40.4023 45.6819 40.8936 45.626 41.3304C45.1785 41.6034 44.787 41.7126 44.4515 41.7126C44.2278 41.7126 44.06 41.658 43.9481 41.4942C43.8362 41.3304 43.7803 41.1666 43.7803 40.8937C43.7803 40.4569 43.9481 39.8017 44.3396 39.0373C44.7311 38.273 45.2345 37.3994 45.8497 36.4166C46.4649 35.4339 47.1361 34.3965 47.9191 33.3046C48.6461 32.2126 49.4291 31.1206 50.1003 30.0287L56.5321 20.1465L54.7983 20.3649C54.6305 20.3649 54.5187 20.4195 54.4068 20.4741C54.295 20.5287 54.1272 20.6925 53.9035 20.9109C53.6798 21.1838 53.4001 21.566 53.0645 22.0574C52.729 22.5488 52.2256 23.2586 51.6663 24.1867C51.107 25.1149 50.324 26.2614 49.4291 27.6264C48.5343 28.9913 47.4157 30.6839 46.1293 32.6494C45.1785 34.0689 44.1718 35.3793 43.1651 36.5258C42.1024 37.6724 41.1517 38.6005 40.2009 39.4195C39.2501 40.2385 38.3552 40.8391 37.6281 41.2758C36.8451 41.7126 36.2299 41.931 35.8384 41.931C35.4469 41.931 35.2232 41.8764 35.1113 41.7126C34.9995 41.5488 34.9435 41.385 34.9435 41.112C34.9435 40.6753 35.1113 40.0201 35.5028 39.2557C35.8943 38.4914 36.3977 37.6178 37.0129 36.635C37.6281 35.6523 38.2993 34.6149 39.0823 33.5229C39.8094 32.431 40.5924 31.339 41.2635 30.2471L47.6954 20.3649L46.0734 20.4741C45.9056 20.4741 45.7938 20.5287 45.6819 20.5833C45.57 20.6379 45.4023 20.8017 45.1785 21.02C44.9548 21.293 44.6752 21.6752 44.3396 22.1666C44.004 22.658 43.5566 23.3678 42.9414 24.2959C42.3262 25.2241 41.5991 26.3706 40.7042 27.7356C39.8094 29.1005 38.6908 30.7931 37.4044 32.7586C36.4536 34.1781 35.4469 35.4885 34.4402 36.635C33.3775 37.7816 32.4267 38.7097 31.4759 39.5287C30.5252 40.3477 29.6303 40.9482 28.9032 41.385C28.1202 41.8218 27.505 42.0402 27.1135 42.0402C26.7779 42.0402 26.5542 41.9856 26.3864 41.8764C26.2746 41.7672 26.2186 41.5488 26.2186 41.1666C26.2186 40.6207 26.4423 39.9109 26.8898 39.0919C27.3372 38.273 27.8965 37.3994 28.5676 36.4712C29.2388 35.5431 29.9659 34.5057 30.6929 33.4683C31.4759 32.431 32.203 31.339 32.8182 30.3017C33.4894 29.2643 34.0487 28.227 34.4402 27.1896C34.8876 26.1522 35.1113 25.1695 35.1113 24.2959C35.1113 22.8764 34.7198 21.839 33.9928 21.1838C33.2657 20.5287 32.1471 20.1465 30.7489 20.1465C30.1896 20.1465 29.6303 20.2011 29.071 20.3103C28.6795 20.0919 28.2321 19.8735 27.7287 19.7643C27.2253 19.6005 26.6101 19.5459 25.939 19.5459C24.8763 19.5459 23.8696 19.7643 22.9188 20.1465C21.968 20.5833 21.0732 21.1292 20.2342 21.7844C19.3953 22.4942 18.6682 23.2586 17.9971 24.1321C17.3259 25.0057 16.7666 25.9339 16.3751 26.862C16.2073 27.2442 16.0395 27.6264 15.9277 28.0086C15.8158 28.3908 15.704 28.7729 15.5921 29.1551C15.4803 29.5373 15.4243 29.8649 15.3684 30.1379C15.3125 30.4655 15.3125 30.6839 15.3125 30.7931C15.3125 30.9023 15.3125 31.0114 15.3125 31.1206C15.3125 31.2298 15.3684 31.2298 15.4803 31.2298C15.5921 31.2298 15.648 31.066 15.648 30.7931C15.8158 29.3189 16.2073 27.8994 16.8226 26.5344C17.4937 25.2241 18.2767 24.0229 19.1716 23.0402C20.1224 22.0574 21.185 21.2384 22.3036 20.6925C23.4781 20.0919 24.6526 19.8189 25.8271 19.8189C26.8898 19.8189 27.7846 19.9827 28.3999 20.3649C27.3372 20.6379 26.2746 21.0746 25.2119 21.6752C24.1492 22.2758 23.1985 22.931 22.3595 23.7499C21.5206 24.5689 20.8494 25.3879 20.3461 26.316C19.8427 27.2442 19.5631 28.1724 19.5631 29.1005C19.5631 29.9741 19.7868 30.7385 20.2902 31.2844C20.7376 31.885 21.5206 32.158 22.5273 32.158C23.59 32.158 24.6526 31.885 25.6034 31.3936C26.6101 30.8477 27.4491 30.1925 28.1761 29.3735C28.9032 28.5545 29.5184 27.6264 29.9659 26.6436C30.4133 25.6609 30.637 24.6781 30.637 23.6953C30.637 23.0948 30.5252 22.4942 30.3574 21.9482C30.1896 21.4022 29.854 20.9109 29.3506 20.5833C29.6303 20.5287 29.854 20.5287 30.1337 20.4741C30.3574 20.4741 30.637 20.4195 30.8607 20.4195C31.2522 20.4195 31.6437 20.4741 32.0352 20.5833C32.4267 20.6925 32.7623 20.8563 33.042 21.0746C33.3216 21.293 33.6012 21.566 33.769 21.8936C33.9368 22.2212 34.0487 22.6034 34.0487 23.0948C34.0487 23.8045 33.825 24.5689 33.3775 25.4425C32.9301 26.316 32.3708 27.2442 31.6997 28.227C31.0285 29.2097 30.3014 30.2471 29.5744 31.2844C28.7914 32.3218 28.0643 33.4138 27.4491 34.4511C26.7779 35.4885 26.2186 36.5258 25.8271 37.5086C25.3797 38.4913 25.156 39.4741 25.156 40.3477C25.156 40.9483 25.3238 41.4396 25.6593 41.8218C25.9949 42.1494 26.3864 42.3678 26.8898 42.3678C27.3372 42.3678 27.7846 42.2586 28.288 42.0402C28.7914 41.8218 29.3506 41.4942 29.9099 41.112C30.4692 40.7299 31.0285 40.2931 31.5878 39.8017C32.1471 39.3103 32.7064 38.8189 33.2097 38.3276C33.7131 37.8362 34.1605 37.3448 34.552 36.908C34.9435 36.4166 35.2791 36.0344 35.5028 35.7069L35.5588 35.7615C35.2232 36.5258 34.8317 37.2902 34.4961 38.0546C34.1605 38.8189 33.9928 39.6379 33.9928 40.5661C33.9928 41.7672 34.4961 42.3678 35.5588 42.3678C36.0062 42.3678 36.4536 42.2586 36.957 42.0402C37.4603 41.8218 38.0196 41.4942 38.5789 41.112C39.1382 40.7299 39.6975 40.2931 40.2568 39.8017C40.8161 39.3103 41.3754 38.8189 41.8787 38.3276C42.3821 37.8362 42.8295 37.3448 43.221 36.908C43.6125 36.4166 43.9481 36.0344 44.1718 35.7069L44.2278 35.7615C43.8922 36.5258 43.5007 37.2902 43.1651 38.0546C42.8295 38.8189 42.6617 39.6379 42.6617 40.5661C42.6617 41.7672 43.1651 42.3678 44.2278 42.3678C44.5074 42.3678 44.787 42.2586 45.1785 42.0948C45.2345 42.0948 45.2904 42.0402 45.3463 42.0402C45.3463 42.0948 45.3463 42.1494 45.3463 42.2586C45.3463 43.2414 45.7378 44.0057 46.5208 44.6609C47.3038 45.3161 48.4224 45.6437 49.8207 45.6437C50.6596 45.6437 51.4426 45.4799 52.1697 45.2069C52.8967 44.8793 53.5679 44.4971 54.1831 44.0603C54.7983 43.6235 55.3017 43.0776 55.8051 42.5862C56.2525 42.0402 56.6999 41.5488 56.9796 41.0574C57.3151 40.5661 57.5389 40.1293 57.7626 39.8017C57.9304 39.4741 58.0422 39.2557 58.0422 39.2011C58.0422 39.0919 57.9863 39.0373 57.8744 39.0373C57.8744 39.0373 57.7626 39.2011 57.5948 39.4741C57.427 39.7471 57.1473 40.1293 56.8118 40.5115C56.4762 40.9482 56.0288 41.385 55.5254 41.8764C55.022 42.3678 54.4628 42.8046 53.7916 43.2414C53.1205 43.6781 52.3934 44.0057 51.6104 44.3333C50.8274 44.6063 49.9325 44.7701 48.9817 44.7701C48.0869 44.7701 47.3598 44.5517 46.8005 44.0603C46.2412 43.6235 45.9615 42.9684 45.9615 42.204C45.9615 42.0948 45.9615 41.931 45.9615 41.8218C46.1293 41.7126 46.2412 41.658 46.409 41.5488C46.8005 41.2758 47.1361 41.0028 47.5276 40.6753C47.9191 40.3477 48.1987 40.0747 48.4224 39.8017C48.5902 39.5833 48.8139 39.3649 49.0376 39.0919C49.2614 38.8735 49.4291 38.6551 49.6529 38.4368C49.8207 38.2184 49.9884 38.0546 50.1003 37.9454C50.2122 37.8362 50.2681 37.727 50.2681 37.727C50.2681 37.6724 50.2681 37.6724 50.2122 37.6178C50.0444 37.6724 49.8766 37.727 49.7088 37.8362C49.5969 37.9454 49.4851 38.1092 49.3732 38.273C49.0376 38.7643 48.4224 39.3649 47.6394 40.0747C47.1361 40.5661 46.6327 41.0028 46.1853 41.3304C46.2971 40.9482 46.4649 40.5661 46.7446 40.1839C47.192 39.5287 47.8072 38.9281 48.6461 38.4368C48.9817 38.2184 49.3732 38 49.7647 37.8362C49.9325 37.6724 50.0444 37.5632 50.0444 37.5632C50.1562 37.5632 50.2122 37.5632 50.2122 37.6178C50.6037 37.454 51.0511 37.2902 51.5544 37.181C52.673 36.8534 53.9594 36.6896 55.3576 36.6896C56.4762 36.6896 57.427 36.6896 58.21 36.7442C58.993 36.7988 59.7201 36.8534 60.3353 36.908C60.9505 36.9626 61.4539 37.0172 61.9013 37.0718C62.3487 37.1264 62.7962 37.181 63.2436 37.2356C63.691 37.2902 64.1385 37.3448 64.5859 37.3994C65.0333 37.454 65.5926 37.454 66.2078 37.454C67.0468 37.454 67.7739 37.3448 68.3891 37.181C69.0043 37.0172 69.5077 36.7988 69.8992 36.5804C70.2907 36.362 70.5703 36.1436 70.794 35.9253C71.0177 35.7069 71.0737 35.5977 71.0737 35.5431C71.0177 35.1609 71.0177 35.1063 70.9059 35.1063ZM29.7421 21.566C29.9099 22.0028 30.0218 22.4396 30.0218 22.931C30.0218 23.5315 29.9099 24.1867 29.6862 24.8419C29.4625 25.4971 29.1269 26.1522 28.7354 26.8074C28.3439 27.4626 27.8965 28.0632 27.3372 28.6091C26.8338 29.1551 26.2746 29.6465 25.7153 30.0833C25.156 30.5201 24.5408 30.8477 23.9815 31.1206C23.3662 31.3936 22.807 31.5028 22.3036 31.5028C21.5765 31.5028 20.9613 31.2298 20.6257 30.6839C20.2342 30.1379 20.0664 29.5373 20.0664 28.7729C20.0664 27.954 20.2902 27.0804 20.7935 26.2068C21.2969 25.3333 21.968 24.5143 22.751 23.7499C23.59 22.9856 24.5408 22.3304 25.5475 21.7298C26.6101 21.1292 27.6728 20.7471 28.8473 20.5287C29.2388 20.8017 29.5744 21.1292 29.7421 21.566Z" fill="#231D14"/>
</svg>
