<svg width="88" height="60" viewBox="0 0 88 60" fill="none" xmlns="http://www.w3.org/2000/svg">
<path d="M78.5039 32.8163C78.2723 32.8163 78.0407 32.5864 78.0407 32.3565V20.1151C78.0407 19.8852 78.2723 19.6553 78.5039 19.6553C78.7355 19.6553 78.9671 19.8852 78.9671 20.1151V32.3565C78.9671 32.5864 78.7355 32.8163 78.5039 32.8163Z" fill="white"/>
<path d="M9.48363 32.8163C9.71524 32.8163 9.94685 32.5864 9.94685 32.3565V20.1151C9.94685 19.8852 9.71524 19.6553 9.48363 19.6553C9.25202 19.6553 9.02041 19.8852 9.02041 20.1151V32.3565C9.02041 32.5864 9.25202 32.8163 9.48363 32.8163Z" fill="white"/>
<path d="M87.9421 21.5518C87.8842 21.7242 87.7105 21.7817 87.5368 21.7817C87.4789 21.7817 87.421 21.7816 87.3631 21.7242L43.9938 1.03448L0.624461 21.7817C0.566558 21.8391 0.508655 21.8391 0.450752 21.8391C0.277043 21.8391 0.103334 21.7242 0.0454312 21.6092C-0.0703747 21.3793 0.0454312 21.092 0.277043 21.0345L43.9938 0L87.7684 20.9771C88 21.092 88.0579 21.3219 87.9421 21.5518Z" fill="white"/>
<path d="M77.5775 18.7358C77.5196 18.9082 77.3459 18.9657 77.1722 18.9657C77.1143 18.9657 77.0564 18.9657 76.9985 18.9082L43.9938 3.16104L11.047 18.9082C10.9891 18.9657 10.9312 18.9657 10.8154 18.9657C10.6417 18.9657 10.468 18.8507 10.4101 18.7358C10.2943 18.5059 10.4101 18.2185 10.6417 18.1036L43.9938 2.12655L77.3459 18.1036C77.5775 18.2185 77.6933 18.5059 77.5775 18.7358Z" fill="white"/>
<path d="M67.2129 15.9195C67.155 16.0919 66.9812 16.1494 66.8075 16.1494C66.7496 16.1494 66.6917 16.1494 66.6338 16.0919L43.9938 5.28731L21.4116 16.0919C21.3537 16.1494 21.2958 16.1494 21.2379 16.1494C21.0642 16.1494 20.8905 16.0345 20.8326 15.9195C20.7168 15.6896 20.8326 15.4023 21.0642 15.2873L43.9938 4.25283L66.9812 15.2873C67.2129 15.4023 67.3287 15.6896 67.2129 15.9195Z" fill="white"/>
<path d="M66.4022 39.5977C66.2864 39.5977 66.1127 39.6551 65.8811 39.7701C65.5915 39.885 65.302 40.0574 64.8967 40.3448C64.4914 40.5747 64.0861 40.862 63.6807 41.2069C63.2175 41.5517 62.7543 41.954 62.349 42.3563C61.3067 43.3908 60.3224 44.5402 59.5117 45.7471C58.7011 47.0115 57.8904 48.2184 57.1377 49.5402C56.385 50.8046 55.5743 52.0689 54.7637 53.2184C53.953 54.4253 52.9687 55.4598 51.8685 56.3793C50.7684 57.2988 49.4945 58.046 48.0469 58.6207C46.5994 59.1954 44.8623 59.4828 42.8936 59.4828C41.6776 59.4828 40.5775 59.3678 39.5931 59.0805C38.6088 58.7931 37.7402 58.3908 36.9875 57.931C36.2347 57.4138 35.7136 56.8391 35.3083 56.1494C34.903 55.4598 34.7293 54.7126 34.7293 53.8506C34.7293 52.8735 34.9609 51.954 35.482 51.1494C36.0031 50.3448 36.6401 49.5977 37.4507 49.023C38.2613 48.3908 39.1878 47.931 40.1721 47.5862C41.1565 47.2414 42.1408 47.0689 43.1252 47.0689C44.8623 47.0689 46.1941 47.4138 47.0626 48.1034C47.9311 48.7931 48.3944 49.7126 48.3944 50.862C48.3944 51.6666 48.2207 52.4138 47.8153 53.046C47.4679 53.6781 46.9468 54.1954 46.3678 54.5977C45.7887 55 45.0939 55.3448 44.3412 55.5747C43.5884 55.8046 42.8936 55.9195 42.1408 55.9195C41.5039 55.9195 40.9828 55.8621 40.5196 55.7471C40.0563 55.6322 39.651 55.5172 39.3615 55.4023C39.0141 55.2873 38.7825 55.1724 38.6088 55.0575C38.4351 54.9425 38.2613 54.885 38.2034 54.885C38.1455 54.885 38.0876 54.9425 38.0876 55.0575C38.0876 55.1149 38.2034 55.2299 38.3772 55.3448C38.6088 55.4598 38.8983 55.6322 39.2457 55.7471C39.5931 55.8621 40.0563 56.0345 40.5196 56.0919C40.9828 56.2069 41.5039 56.2644 42.025 56.2644C42.8357 56.2644 43.6463 56.1494 44.457 55.9195C45.2676 55.6896 46.0203 55.3448 46.6573 54.885C47.2942 54.4253 47.8732 53.8506 48.2786 53.1609C48.6839 52.4712 48.8576 51.7241 48.8576 50.862C48.8576 50 48.6839 49.3103 48.2786 48.6781C47.8732 48.046 47.41 47.5862 46.7731 47.1839C46.1941 46.7816 45.4992 46.4942 44.7465 46.3218C43.9937 46.1494 43.2989 46.0345 42.6041 46.0345C41.5039 46.0345 40.4038 46.2069 39.4194 46.6092C38.3772 47.0115 37.5086 47.5287 36.698 48.1609C35.8873 48.8506 35.2504 49.5977 34.7872 50.5172C34.3239 51.3793 34.0923 52.3563 34.0923 53.3333C34.0923 54.3678 34.3239 55.3448 34.7872 56.1494C35.2504 56.954 35.8873 57.6437 36.6401 58.2184C37.4507 58.7931 38.3772 59.1954 39.4194 59.5402C40.4617 59.8276 41.6197 60 42.8357 60C44.6307 60 46.3678 59.7701 47.989 59.3103C49.6103 58.8506 51.0579 58.1609 52.4476 57.2988C53.8372 56.4368 55.0532 55.3448 56.1534 54.0804C57.2535 52.8161 58.2379 51.3793 59.0485 49.8276C60.0908 47.8161 61.0172 46.1494 61.8278 44.8276C62.6385 43.5057 63.2754 42.5287 63.8545 41.839C64.144 41.4942 64.4335 41.2069 64.723 41.0344C65.0125 40.8046 65.302 40.6321 65.5915 40.5172C65.8811 40.4023 66.1127 40.2873 66.2864 40.1724C66.4601 40.0574 66.5759 40 66.5759 39.885C66.518 39.6551 66.518 39.5977 66.4022 39.5977ZM51.7527 39.2528C51.6948 39.2528 51.579 39.3678 51.4632 39.5402C51.6369 39.4827 51.8106 39.3678 51.9843 39.3103C51.9264 39.2528 51.8685 39.2528 51.7527 39.2528Z" fill="white"/>
<path d="M51.7527 39.2528C51.6948 39.2528 51.579 39.3678 51.4632 39.5402C51.6369 39.4827 51.8106 39.3678 51.9843 39.3103C51.9264 39.2528 51.8685 39.2528 51.7527 39.2528Z" fill="white"/>
<path d="M73.4084 36.954C73.1768 36.954 72.9452 36.954 72.6557 37.0115C72.3662 37.0689 72.0767 37.1264 71.6134 37.1839C71.2081 37.2413 70.687 37.2988 70.108 37.3563C69.5289 37.4137 68.7762 37.4138 67.8498 37.4138H60.3224C57.8325 37.4138 55.748 37.6436 54.0689 38.1034C52.3897 38.5632 51 39.0804 50.0156 39.7701C48.9734 40.4597 48.2786 41.1494 47.8153 41.954C47.5258 42.5287 47.2942 43.0459 47.2363 43.5057C46.7731 43.7931 46.3678 43.908 46.0203 43.908C45.7887 43.908 45.615 43.8505 45.4992 43.6781C45.3834 43.5057 45.3255 43.3333 45.3255 43.0459C45.3255 42.5862 45.4992 41.8965 45.9045 41.0919C46.3099 40.2873 46.831 39.3678 47.4679 38.3333C48.1048 37.2988 48.7997 36.2069 49.6103 35.0574C50.3631 33.908 51.1737 32.7586 51.8685 31.6091L58.5274 21.2068L56.7324 21.4367C56.5587 21.4367 56.4429 21.4942 56.3271 21.5517C56.2113 21.6091 56.0376 21.7815 55.8059 22.0114C55.5743 22.2988 55.2848 22.7011 54.9374 23.2183C54.59 23.7356 54.0689 24.4827 53.4898 25.4597C52.9108 26.4367 52.1002 27.6436 51.1737 29.0804C50.2473 30.5172 49.0892 32.2988 47.7574 34.3678C46.7731 35.862 45.7308 37.2413 44.6886 38.4482C43.5884 39.6551 42.6041 40.6321 41.6197 41.4942C40.6354 42.3563 39.7089 42.9885 38.9562 43.4482C38.1455 43.908 37.5086 44.1379 37.1033 44.1379C36.698 44.1379 36.4664 44.0804 36.3506 43.908C36.2347 43.7356 36.1768 43.5632 36.1768 43.2758C36.1768 42.8161 36.3506 42.1264 36.7559 41.3218C37.1612 40.5172 37.6823 39.5977 38.3192 38.5632C38.9562 37.5287 39.651 36.4367 40.4617 35.2873C41.2144 34.1379 42.025 32.9885 42.7199 31.839L49.3787 21.4367L47.6995 21.5517C47.5258 21.5517 47.41 21.6091 47.2942 21.6666C47.1784 21.7241 47.0047 21.8965 46.7731 22.1264C46.5415 22.4137 46.252 22.816 45.9045 23.3333C45.5571 23.8505 45.0939 24.5976 44.457 25.5746C43.82 26.5517 43.0673 27.7586 42.1408 29.1953C41.2144 30.6321 40.0563 32.4137 38.7246 34.4827C37.7402 35.977 36.698 37.3563 35.6557 38.5632C34.5556 39.7701 33.5712 40.7471 32.5869 41.6092C31.6025 42.4712 30.6761 43.1034 29.9233 43.5632C29.1127 44.023 28.4758 44.2528 28.0704 44.2528C27.723 44.2528 27.4914 44.1954 27.3177 44.0804C27.2019 43.9655 27.144 43.7356 27.144 43.3333C27.144 42.7586 27.3756 42.0115 27.8388 41.1494C28.302 40.2873 28.8811 39.3678 29.5759 38.3908C30.2707 37.4138 31.0235 36.3218 31.7762 35.2298C32.5869 34.1379 33.3396 32.9885 33.9765 31.8965C34.6714 30.8045 35.2504 29.7126 35.6557 28.6206C36.1189 27.5287 36.3506 26.4942 36.3506 25.5746C36.3506 24.0804 35.9452 22.9884 35.1925 22.2988C34.4398 21.6091 33.2817 21.2068 31.8341 21.2068C31.2551 21.2068 30.6761 21.2643 30.097 21.3792C29.6917 21.1494 29.2285 20.9195 28.7074 20.8045C28.1862 20.6321 27.5493 20.5746 26.8545 20.5746C25.7543 20.5746 24.7121 20.8045 23.7277 21.2068C22.7434 21.6666 21.8169 22.2413 20.9484 22.931C20.0798 23.6781 19.3271 24.4827 18.6323 25.4022C17.9374 26.3218 17.3584 27.2988 16.9531 28.2758C16.7794 28.6781 16.6056 29.0804 16.4898 29.4827C16.374 29.885 16.2582 30.2873 16.1424 30.6896C16.0266 31.0919 15.9687 31.4367 15.9108 31.7241C15.8529 32.0689 15.8529 32.2988 15.8529 32.4137C15.8529 32.5287 15.8529 32.6436 15.8529 32.7586C15.8529 32.8735 15.9108 32.8735 16.0266 32.8735C16.1424 32.8735 16.2003 32.7011 16.2003 32.4137C16.374 30.862 16.7794 29.3678 17.4163 27.931C18.1111 26.5517 18.9218 25.2873 19.8482 24.2528C20.8326 23.2183 21.9327 22.3563 23.0908 21.7815C24.3067 21.1494 25.5227 20.862 26.7387 20.862C27.8388 20.862 28.7653 21.0344 29.4022 21.4367C28.302 21.7241 27.2019 22.1838 26.1017 22.816C25.0016 23.4482 24.0172 24.1379 23.1487 24.9999C22.2801 25.862 21.5853 26.7241 21.0642 27.7011C20.5431 28.6781 20.2535 29.6551 20.2535 30.6321C20.2535 31.5517 20.4851 32.3563 21.0063 32.931C21.4695 33.5632 22.2801 33.8505 23.3224 33.8505C24.4225 33.8505 25.5227 33.5632 26.5071 33.0459C27.5493 32.4712 28.4179 31.7816 29.1706 30.9195C29.9233 30.0574 30.5603 29.0804 31.0235 28.0459C31.4867 27.0114 31.7183 25.9769 31.7183 24.9425C31.7183 24.3103 31.6025 23.6781 31.4288 23.1034C31.2551 22.5287 30.9077 22.0114 30.3866 21.6666C30.6761 21.6091 30.9077 21.6091 31.1972 21.5517C31.4288 21.5517 31.7183 21.4942 31.9499 21.4942C32.3553 21.4942 32.7606 21.5517 33.1659 21.6666C33.5712 21.7815 33.9186 21.954 34.2081 22.1838C34.4977 22.4137 34.7872 22.7011 34.9609 23.0459C35.1346 23.3907 35.2504 23.793 35.2504 24.3103C35.2504 25.0574 35.0188 25.862 34.5556 26.7815C34.0923 27.7011 33.5133 28.6781 32.8185 29.7126C32.1236 30.7471 31.3709 31.839 30.6182 32.931C29.8075 34.0229 29.0548 35.1724 28.4178 36.2643C27.723 37.3563 27.144 38.4482 26.7387 39.4827C26.2754 40.5172 26.0438 41.5517 26.0438 42.4712C26.0438 43.1034 26.2175 43.6207 26.565 44.023C26.9124 44.3678 27.3177 44.5977 27.8388 44.5977C28.302 44.5977 28.7653 44.4827 29.2864 44.2528C29.8075 44.023 30.3866 43.6781 30.9656 43.2758C31.5446 42.8735 32.1236 42.4138 32.7027 41.8965C33.2817 41.3793 33.8607 40.862 34.3819 40.3448C34.903 39.8275 35.3662 39.3103 35.7715 38.8505C36.1768 38.3333 36.5243 37.931 36.7559 37.5862L36.8138 37.6436C36.4664 38.4482 36.061 39.2528 35.7136 40.0574C35.3662 40.862 35.1925 41.7241 35.1925 42.7011C35.1925 43.9655 35.7136 44.5977 36.8138 44.5977C37.277 44.5977 37.7402 44.4827 38.2613 44.2528C38.7825 44.023 39.3615 43.6781 39.9405 43.2758C40.5196 42.8735 41.0986 42.4138 41.6776 41.8965C42.2567 41.3793 42.8357 40.862 43.3568 40.3448C43.8779 39.8275 44.3412 39.3103 44.7465 38.8505C45.1518 38.3333 45.4992 37.931 45.7308 37.5862L45.7887 37.6436C45.4413 38.4482 45.036 39.2528 44.6886 40.0574C44.3412 40.862 44.1675 41.7241 44.1675 42.7011C44.1675 43.9655 44.6886 44.5977 45.7887 44.5977C46.0782 44.5977 46.3678 44.4827 46.7731 44.3103C46.831 44.3103 46.8889 44.2528 46.9468 44.2528C46.9468 44.3103 46.9468 44.3678 46.9468 44.4827C46.9468 45.5172 47.3521 46.3218 48.1628 47.0115C48.9734 47.7011 50.1315 48.046 51.579 48.046C52.4476 48.046 53.2582 47.8735 54.011 47.5862C54.7637 47.2414 55.4585 46.8391 56.0955 46.3793C56.7324 45.9195 57.2535 45.3448 57.7746 44.8276C58.2379 44.2528 58.7011 43.7356 58.9906 43.2184C59.338 42.7011 59.5696 42.2413 59.8012 41.8965C59.975 41.5517 60.0908 41.3218 60.0908 41.2643C60.0908 41.1494 60.0329 41.0919 59.917 41.0919C59.917 41.0919 59.8012 41.2643 59.6275 41.5517C59.4538 41.839 59.1643 42.2413 58.8169 42.6436C58.4695 43.1034 58.0063 43.5632 57.4851 44.0804C56.964 44.5977 56.385 45.0574 55.6901 45.5172C54.9953 45.977 54.2426 46.3218 53.4319 46.6666C52.6213 46.954 51.6948 47.1264 50.7105 47.1264C49.784 47.1264 49.0313 46.8965 48.4523 46.3793C47.8732 45.9195 47.5837 45.2299 47.5837 44.4253C47.5837 44.3103 47.5837 44.1379 47.5837 44.023C47.7574 43.908 47.8732 43.8505 48.0469 43.7356C48.4523 43.4482 48.7997 43.1609 49.205 42.8161C49.6103 42.4712 49.8998 42.1839 50.1315 41.8965C50.3052 41.6666 50.5368 41.4367 50.7684 41.1494C51 40.9195 51.1737 40.6896 51.4053 40.4597C51.579 40.2299 51.7527 40.0574 51.8685 39.9425C51.9843 39.8275 52.0423 39.7126 52.0423 39.7126C52.0423 39.6551 52.0423 39.6551 51.9843 39.5977C51.8106 39.6551 51.6369 39.7126 51.4632 39.8275C51.3474 39.9425 51.2316 40.1149 51.1158 40.2873C50.7684 40.8046 50.1315 41.4367 49.3208 42.1839C48.7997 42.7011 48.2786 43.1609 47.8153 43.5057C47.9311 43.1034 48.1048 42.7011 48.3944 42.2988C48.8576 41.6092 49.4945 40.977 50.3631 40.4597C50.7105 40.2299 51.1158 40 51.5211 39.8275C51.6948 39.6551 51.8106 39.5402 51.8106 39.5402C51.9264 39.5402 51.9843 39.5402 51.9843 39.5977C52.3897 39.4253 52.8529 39.2528 53.374 39.1379C54.5321 38.7931 55.8638 38.6206 57.3114 38.6206C58.4695 38.6206 59.4538 38.6206 60.2645 38.6781C61.0751 38.7356 61.8278 38.7931 62.4648 38.8505C63.1017 38.908 63.6228 38.9655 64.0861 39.023C64.5493 39.0804 65.0125 39.1379 65.4757 39.1954C65.939 39.2528 66.4022 39.3103 66.8654 39.3678C67.3286 39.4252 67.9077 39.4252 68.5446 39.4252C69.4131 39.4252 70.1659 39.3103 70.8028 39.1379C71.4397 38.9655 71.9609 38.7356 72.3662 38.5057C72.7715 38.2758 73.061 38.0459 73.2926 37.816C73.5242 37.5862 73.5821 37.4712 73.5821 37.4138C73.5242 37.0115 73.5242 36.954 73.4084 36.954ZM30.7919 22.7011C30.9656 23.1609 31.0814 23.6206 31.0814 24.1379C31.0814 24.77 30.9656 25.4597 30.734 26.1494C30.5024 26.839 30.1549 27.5287 29.7496 28.2183C29.3443 28.908 28.8811 29.5402 28.302 30.1149C27.7809 30.6896 27.2019 31.2068 26.6229 31.6666C26.0438 32.1264 25.4069 32.4712 24.8279 32.7586C24.1909 33.0459 23.6119 33.1609 23.0908 33.1609C22.338 33.1609 21.7011 32.8735 21.3537 32.2988C20.9484 31.7241 20.7747 31.0919 20.7747 30.2873C20.7747 29.4252 21.0063 28.5057 21.5274 27.5861C22.0485 26.6666 22.7434 25.8045 23.554 24.9999C24.4225 24.1953 25.4069 23.5057 26.4492 22.8735C27.5493 22.2413 28.6495 21.839 29.8654 21.6091C30.2707 21.8965 30.6182 22.2413 30.7919 22.7011Z" fill="white"/>
</svg>
