<svg width="69" height="69" viewBox="0 0 69 69" fill="none" xmlns="http://www.w3.org/2000/svg">
<mask id="path-1-inside-1" fill="white">
<path d="M63.2657 36.0049L69 34.5053L63.2657 32.9997C62.5044 18.2942 50.7045 6.49403 35.9995 5.73057L34.4979 0L32.9962 5.73022C18.2912 6.49368 6.49561 18.296 5.73217 33.0015L0 34.5053L5.73217 36.0049C6.49347 50.7104 18.2912 62.5085 32.9962 63.2677L34.4979 69L35.9995 63.2677C50.7067 62.5085 62.5044 50.7104 63.2657 36.0049ZM34.4957 58.8522C21.0759 58.8522 10.1475 47.9281 10.1475 34.5053C10.1475 21.0765 21.0755 10.15 34.4957 10.15C47.9262 10.15 58.8503 21.0762 58.8503 34.5053C58.8503 47.9277 47.9241 58.8522 34.4957 58.8522ZM38.9239 34.5224L34.6802 13.571L30.0697 34.4417H30.0612V34.4822H30.0697L34.3134 55.4358L38.9239 34.5629H38.9324L38.9281 34.5373L38.9324 34.5224H38.9239ZM31.7875 34.4566L34.6567 21.5006L37.2801 34.5053L31.7875 34.4566ZM21.271 31.5403L19.6254 37.4597H18.4462L17.5004 32.8025L16.5653 37.4597H15.3945L13.7511 31.5403H15.0384L16.0247 35.8752L16.8773 31.5403H18.1924L19.045 35.8329L20.0313 31.5403H21.271ZM55.2514 36.4097V37.4575H50.7575V31.5382H55.1071V32.586H51.9961V33.8499H54.891V34.8679H51.9961V36.4097H55.2514Z"/>
</mask>
<path d="M63.2657 36.0049L63.0127 35.0374L62.3049 35.2225L62.267 35.9532L63.2657 36.0049ZM69 34.5053L69.253 35.4728L72.9452 34.5073L69.254 33.5381L69 34.5053ZM63.2657 32.9997L62.267 33.0514L62.3048 33.7813L63.0117 33.967L63.2657 32.9997ZM35.9995 5.73057L35.0322 5.98405L35.2175 6.69132L35.9477 6.72923L35.9995 5.73057ZM34.4979 0L35.4652 -0.253482L34.4979 -3.94494L33.5305 -0.253497L34.4979 0ZM32.9962 5.73022L33.0481 6.72887L33.7782 6.69096L33.9636 5.98371L32.9962 5.73022ZM5.73217 33.0015L5.98593 33.9688L6.69293 33.7833L6.73082 33.0534L5.73217 33.0015ZM0 34.5053L-0.25376 33.5381L-3.94597 34.5067L-0.253086 35.4728L0 34.5053ZM5.73217 36.0049L6.73083 35.9532L6.69301 35.2226L5.98526 35.0374L5.73217 36.0049ZM32.9962 63.2677L33.9636 63.0143L33.7782 62.3067L33.0478 62.269L32.9962 63.2677ZM34.4979 69L33.5305 69.2534L34.4979 72.9462L35.4652 69.2534L34.4979 69ZM35.9995 63.2677L35.948 62.269L35.2175 62.3067L35.0321 63.0143L35.9995 63.2677ZM38.9239 34.5224L37.9438 34.7209L38.1061 35.5224H38.9239V34.5224ZM34.6802 13.571L35.6603 13.3724L33.7037 13.3553L34.6802 13.571ZM30.0697 34.4417V35.4417H30.8729L31.0462 34.6574L30.0697 34.4417ZM30.0612 34.4417V33.4417H29.0612V34.4417H30.0612ZM30.0612 34.4822H29.0612V35.4822H30.0612V34.4822ZM30.0697 34.4822L31.0498 34.2837L30.8875 33.4822H30.0697V34.4822ZM34.3134 55.4358L33.3333 55.6343L35.2899 55.6515L34.3134 55.4358ZM38.9239 34.5629V33.5629H38.1207L37.9474 34.3472L38.9239 34.5629ZM38.9324 34.5629V35.5629H40.1127L39.9188 34.3986L38.9324 34.5629ZM38.9281 34.5373L37.9666 34.2628L37.9047 34.4794L37.9417 34.7016L38.9281 34.5373ZM38.9324 34.5224L39.894 34.797L40.2579 33.5224H38.9324V34.5224ZM31.7875 34.4566L30.8111 34.2404L30.5442 35.4457L31.7786 35.4566L31.7875 34.4566ZM34.6567 21.5006L35.637 21.3028L33.6804 21.2843L34.6567 21.5006ZM37.2801 34.5053L37.2712 35.5053L38.5041 35.5162L38.2603 34.3076L37.2801 34.5053ZM21.271 31.5403L22.2345 31.8082L22.5869 30.5403H21.271V31.5403ZM19.6254 37.4597V38.4597H20.3854L20.5889 37.7275L19.6254 37.4597ZM18.4462 37.4597L17.4662 37.6587L17.6288 38.4597H18.4462V37.4597ZM17.5004 32.8025L18.4804 32.6035L16.52 32.6056L17.5004 32.8025ZM16.5653 37.4597V38.4597H17.3845L17.5457 37.6565L16.5653 37.4597ZM15.3945 37.4597L14.431 37.7272L14.6344 38.4597H15.3945V37.4597ZM13.7511 31.5403V30.5403H12.4356L12.7875 31.8079L13.7511 31.5403ZM15.0384 31.5403L16.0135 31.3185L15.8364 30.5403H15.0384V31.5403ZM16.0247 35.8752L15.0496 36.097L17.0059 36.0682L16.0247 35.8752ZM16.8773 31.5403V30.5403H16.0549L15.8961 31.3474L16.8773 31.5403ZM18.1924 31.5403L19.1732 31.3455L19.0133 30.5403H18.1924V31.5403ZM19.045 35.8329L18.0642 36.0277L20.0196 36.0568L19.045 35.8329ZM20.0313 31.5403V30.5403H19.235L19.0567 31.3164L20.0313 31.5403ZM55.2514 36.4097H56.2514V35.4097H55.2514V36.4097ZM55.2514 37.4575V38.4575H56.2514V37.4575H55.2514ZM50.7575 37.4575H49.7575V38.4575H50.7575V37.4575ZM50.7575 31.5382V30.5382H49.7575V31.5382H50.7575ZM55.1071 31.5382H56.1071V30.5382H55.1071V31.5382ZM55.1071 32.586V33.586H56.1071V32.586H55.1071ZM51.9961 32.586V31.586H50.9961V32.586H51.9961ZM51.9961 33.8499H50.9961V34.8499H51.9961V33.8499ZM54.891 33.8499H55.891V32.8499H54.891V33.8499ZM54.891 34.8679V35.8679H55.891V34.8679H54.891ZM51.9961 34.8679V33.8679H50.9961V34.8679H51.9961ZM51.9961 36.4097H50.9961V37.4097H51.9961V36.4097ZM63.5187 36.9724L69.253 35.4728L68.747 33.5379L63.0127 35.0374L63.5187 36.9724ZM69.254 33.5381L63.5196 32.0325L63.0117 33.967L68.746 35.4726L69.254 33.5381ZM64.2644 32.948C63.4766 17.7309 51.2679 5.52193 36.0514 4.73192L35.9477 6.72923C50.1412 7.46613 61.5322 18.8576 62.267 33.0514L64.2644 32.948ZM36.9668 5.47709L35.4652 -0.253482L33.5305 0.253482L35.0322 5.98405L36.9668 5.47709ZM33.5305 -0.253497L32.0289 5.47672L33.9636 5.98371L35.4652 0.253497L33.5305 -0.253497ZM32.9444 4.73156C17.7275 5.52159 5.52349 17.733 4.73351 32.9497L6.73082 33.0534C7.46772 18.8591 18.8549 7.46576 33.0481 6.72887L32.9444 4.73156ZM5.47841 32.0343L-0.25376 33.5381L0.25376 35.4726L5.98593 33.9688L5.47841 32.0343ZM-0.253086 35.4728L5.47908 36.9723L5.98526 35.0374L0.253086 33.5379L-0.253086 35.4728ZM4.73351 36.0566C5.52129 51.2736 17.7279 63.4807 32.9447 64.2663L33.0478 62.269C18.8545 61.5362 7.46565 50.1471 6.73083 35.9532L4.73351 36.0566ZM32.0289 63.5211L33.5305 69.2534L35.4652 68.7466L33.9636 63.0143L32.0289 63.5211ZM35.4652 69.2534L36.9669 63.5211L35.0321 63.0143L33.5305 68.7466L35.4652 69.2534ZM36.0511 64.2663C51.27 63.4807 63.4766 51.2737 64.2644 36.0566L62.267 35.9532C61.5322 50.1471 50.1434 61.5362 35.948 62.269L36.0511 64.2663ZM34.4957 57.8522C21.628 57.8522 11.1475 47.3756 11.1475 34.5053H9.14752C9.14752 48.4805 20.5238 59.8522 34.4957 59.8522V57.8522ZM11.1475 34.5053C11.1475 21.6287 21.628 11.15 34.4957 11.15V9.14997C20.5231 9.14997 9.14752 20.5244 9.14752 34.5053H11.1475ZM34.4957 11.15C47.3739 11.15 57.8503 21.6284 57.8503 34.5053H59.8503C59.8503 20.524 48.4786 9.14997 34.4957 9.14997V11.15ZM57.8503 34.5053C57.8503 47.3752 47.3721 57.8522 34.4957 57.8522V59.8522C48.4761 59.8522 59.8503 48.4803 59.8503 34.5053H57.8503ZM39.904 34.3239L35.6603 13.3724L33.7001 13.7695L37.9438 34.7209L39.904 34.3239ZM33.7037 13.3553L29.0933 34.226L31.0462 34.6574L35.6567 13.7867L33.7037 13.3553ZM30.0697 33.4417H30.0612V35.4417H30.0697V33.4417ZM30.0612 35.4822H30.0697V33.4822H30.0612V35.4822ZM29.0896 34.6807L33.3333 55.6343L35.2935 55.2373L31.0498 34.2837L29.0896 34.6807ZM35.2899 55.6515L39.9003 34.7786L37.9474 34.3472L33.3369 55.2201L35.2899 55.6515ZM38.9239 35.5629H38.9324V33.5629H38.9239V35.5629ZM39.9188 34.3986L39.9146 34.373L37.9417 34.7016L37.946 34.7272L39.9188 34.3986ZM39.8897 34.8119L39.894 34.797L37.9708 34.2478L37.9666 34.2628L39.8897 34.8119ZM38.9324 33.5224H38.9239V35.5224H38.9324V33.5224ZM32.7638 34.6729L35.6331 21.7168L33.6804 21.2843L30.8111 34.2404L32.7638 34.6729ZM33.6765 21.6983L36.2998 34.7031L38.2603 34.3076L35.637 21.3028L33.6765 21.6983ZM37.2889 33.5054L31.7963 33.4567L31.7786 35.4566L37.2712 35.5053L37.2889 33.5054ZM20.3076 31.2725L18.662 37.1918L20.5889 37.7275L22.2345 31.8082L20.3076 31.2725ZM19.4262 37.2606L18.4804 32.6035L16.5204 33.0015L17.4662 37.6587L19.4262 37.2606ZM16.52 32.6056L15.5849 37.2628L17.5457 37.6565L18.4808 32.9993L16.52 32.6056ZM16.3581 37.1921L14.7146 31.2728L12.7875 31.8079L14.431 37.7272L16.3581 37.1921ZM14.0633 31.7622L15.0496 36.097L16.9998 35.6533L16.0135 31.3185L14.0633 31.7622ZM17.0059 36.0682L17.8585 31.7334L15.8961 31.3474L15.0435 35.6822L17.0059 36.0682ZM17.2116 31.7352L18.0642 36.0277L20.0259 35.638L19.1732 31.3455L17.2116 31.7352ZM20.0196 36.0568L21.0059 31.7643L19.0567 31.3164L18.0704 35.6089L20.0196 36.0568ZM55.2514 36.4575H50.7575V38.4575H55.2514V36.4575ZM51.7575 37.4575V31.5382H49.7575V37.4575H51.7575ZM50.7575 32.5382H55.1071V30.5382H50.7575V32.5382ZM55.1071 31.586H51.9961V33.586H55.1071V31.586ZM50.9961 32.586V33.8499H52.9961V32.586H50.9961ZM51.9961 34.8499H54.891V32.8499H51.9961V34.8499ZM54.891 33.8679H51.9961V35.8679H54.891V33.8679ZM50.9961 34.8679V36.4097H52.9961V34.8679H50.9961ZM51.9961 37.4097H55.2514V35.4097H51.9961V37.4097ZM29.0612 34.4417V34.4822H31.0612V34.4417H29.0612ZM20.0313 32.5404H21.271V30.5403H20.0313V32.5404ZM19.6254 36.4597H18.4462V38.4597H19.6254V36.4597ZM16.5653 36.4597H15.3945V38.4597H16.5653V36.4597ZM13.7511 32.5404H15.0384V30.5403H13.7511V32.5404ZM16.8773 32.5404H18.1924V30.5403H16.8773V32.5404ZM54.2514 36.4097V37.4575H56.2514V36.4097H54.2514ZM54.1071 31.5382V32.586H56.1071V31.5382H54.1071ZM53.891 33.8499V34.8679H55.891V33.8499H53.891Z" fill="white" fill-opacity="0.09" mask="url(#path-1-inside-1)"/>
</svg>
