<svg width="18" height="10" viewBox="0 0 18 10" fill="none" xmlns="http://www.w3.org/2000/svg">
<path fill-rule="evenodd" clip-rule="evenodd" d="M14.5424 5.50642C14.902 4.78417 15.3736 4.12005 15.9407 3.53735C16.9288 2.23794 17.3577 1.41915 17.2272 1.08099C17.1787 1.00014 17.1069 0.93489 17.0207 0.893285C16.9346 0.851679 16.8379 0.835546 16.7424 0.846887H13.7779C13.6965 0.847768 13.6177 0.875248 13.5542 0.924923C13.4889 0.977552 13.433 1.02927 13.3771 1.08099L13.3398 1.15903L13.0602 1.78243C12.8758 2.22493 12.6608 2.65481 12.4169 3.06913C12.1074 3.66774 11.7013 4.21425 11.2143 4.68795C10.944 4.88213 10.7762 4.94111 10.6923 4.86307C10.5939 4.77362 10.5162 4.66463 10.4647 4.54346C10.4133 4.42229 10.3892 4.29177 10.3941 4.16073C10.3848 3.84949 10.3754 3.53735 10.3754 3.2252C10.4034 2.3677 10.4126 1.72435 10.4126 1.29515C10.438 1.12266 10.3941 0.947278 10.2898 0.805598C10.1856 0.663919 10.0293 0.566893 9.85332 0.534744C9.72281 0.509336 9.57369 0.483009 9.41521 0.456694C9.17418 0.426035 8.93109 0.412993 8.68806 0.417676C8.24059 0.417676 7.83971 0.430682 7.48547 0.456694C7.18801 0.474448 6.89388 0.526857 6.60924 0.61278C6.49007 0.702942 6.38355 0.807875 6.29232 0.924923C6.20842 1.02927 6.20842 1.08099 6.29232 1.08099C6.40766 1.08996 6.52086 1.11628 6.6279 1.15903C6.77829 1.21439 6.91042 1.30849 7.01014 1.43125C7.1164 1.65235 7.18259 1.88964 7.20587 2.13268L7.25241 2.52287V3.59452C7.28262 3.81918 7.26606 4.04747 7.20359 4.26574C7.14113 4.48401 7.03414 4.68778 6.88895 4.86488C6.73047 4.96954 6.516 4.8915 6.24566 4.63078C5.81662 4.13718 5.44175 3.60133 5.12705 3.03193C4.88467 2.64374 4.6697 2.23992 4.48377 1.82326L4.16685 1.16084C4.13982 1.0844 4.09137 1.01683 4.02699 0.965754C3.96061 0.913432 3.88472 0.873726 3.80327 0.848701H1.08117C0.98256 0.868792 0.892046 0.916031 0.820233 0.984806C0.787927 1.01813 0.765573 1.05944 0.755711 1.10424C0.745849 1.14904 0.748802 1.19561 0.764245 1.23889L0.80157 1.35595C0.829537 1.48571 1.22108 2.27151 1.9855 3.7152C2.72168 5.13111 3.64284 6.4484 4.72615 7.63429C5.46718 8.41625 6.42589 8.97146 7.48547 9.23224C7.91709 9.34188 8.36439 9.38143 8.80925 9.34929L9.97452 9.38831C10.0268 9.38771 10.0783 9.37707 10.1263 9.35698C10.1743 9.33689 10.2178 9.30775 10.2542 9.27126C10.29 9.24271 10.3192 9.20723 10.34 9.16708C10.3609 9.12693 10.373 9.08298 10.3754 9.03805L10.4126 8.96002C10.3925 8.73198 10.4051 8.50232 10.45 8.27765C10.4568 8.11141 10.5087 7.94989 10.6004 7.80949C10.6921 7.66908 10.8203 7.55479 10.972 7.47822C11.1817 7.48559 11.3859 7.54498 11.5654 7.65074C11.7448 7.75651 11.8936 7.90514 11.9975 8.08256C12.3617 8.51838 12.7709 8.91669 13.2186 9.27126C13.5453 9.46455 13.9179 9.57211 14.3 9.58342L16.5 9.5444C16.6774 9.54417 16.8514 9.49712 17.0034 9.40828C17.2831 9.29122 17.3204 9.02445 17.106 8.60885C17.0176 8.41821 16.9014 8.24095 16.7611 8.08256C16.3632 7.60399 15.9302 7.15424 15.4653 6.73687C14.7661 6.21602 14.4585 5.80587 14.5424 5.50642Z" fill="#231D14"/>
</svg>
