<svg width="14" height="11" viewBox="0 0 14 11" fill="none" xmlns="http://www.w3.org/2000/svg">
<path fill-rule="evenodd" clip-rule="evenodd" d="M9.38763 5.54167L5.61549 2.7114V8.37194L9.38763 5.54167ZM12.9083 2.41707C13.1122 3.44058 13.2048 4.48311 13.1848 5.52656C13.2043 6.57499 13.1117 7.6226 12.9083 8.65128C12.7323 9.56703 12.4052 10.1204 11.9274 10.3166C11.3319 10.4416 10.7253 10.5065 10.1168 10.5104C9.16115 10.5582 8.07986 10.5833 6.89792 10.5833C5.69084 10.5833 4.60964 10.559 3.65403 10.5104C3.04565 10.5046 2.43921 10.4397 1.84336 10.3166C1.36556 10.1204 1.03854 9.56703 0.862508 8.65128C0.659127 7.6226 0.566489 6.57499 0.585984 5.52656C0.565957 4.48311 0.658605 3.44058 0.862508 2.41707C1.03854 1.5139 1.36556 0.953667 1.84336 0.73647C2.44246 0.640668 3.04747 0.586056 3.65403 0.572968C4.60964 0.525168 5.69084 0.500839 6.89792 0.5C8.07986 0.5 9.16115 0.530214 10.1168 0.588077C10.7236 0.606796 11.3286 0.666463 11.9274 0.766689C12.4052 0.962921 12.7323 1.51306 12.9083 2.41707Z" fill="#231D14"/>
</svg>
