<svg width="14" height="11" viewBox="0 0 14 11" fill="none" xmlns="http://www.w3.org/2000/svg">
<path fill-rule="evenodd" clip-rule="evenodd" d="M9.38757 5.54167L5.61543 2.7114V8.37194L9.38757 5.54167ZM12.9082 2.41707C13.1121 3.44058 13.2048 4.48311 13.1847 5.52656C13.2042 6.57499 13.1116 7.6226 12.9082 8.65128C12.7322 9.56703 12.4052 10.1204 11.9274 10.3166C11.3318 10.4416 10.7252 10.5065 10.1167 10.5104C9.16109 10.5582 8.0798 10.5833 6.89786 10.5833C5.69078 10.5833 4.60958 10.559 3.65397 10.5104C3.04558 10.5046 2.43914 10.4397 1.8433 10.3166C1.3655 10.1204 1.03848 9.56703 0.862447 8.65128C0.659066 7.6226 0.566428 6.57499 0.585922 5.52656C0.565896 4.48311 0.658544 3.44058 0.862447 2.41707C1.03848 1.5139 1.3655 0.953667 1.8433 0.73647C2.4424 0.640668 3.04741 0.586056 3.65397 0.572968C4.60958 0.525168 5.69078 0.500839 6.89786 0.5C8.0798 0.5 9.16109 0.530214 10.1167 0.588077C10.7236 0.606796 11.3285 0.666463 11.9274 0.766689C12.4052 0.962921 12.7322 1.51306 12.9082 2.41707Z" fill="white"/>
</svg>
